<?xml version="1.0" encoding="UTF-8"?>
<svg id="Camada_2" xmlns="http://www.w3.org/2000/svg" viewBox="0 0 875.59 1549.98">
  <defs>
    <style>
      .cls-1, .cls-2 {
        fill: #141414;
      }

      .cls-2 {
        fill-rule: evenodd;
      }
    </style>
  </defs>
  <g id="Camada_2-2" data-name="Camada_2">
    <g id="Camada_1-2">
      <g>
        <path class="cls-1" d="M875.59,33.66h-42.1L852.92,0H0l426.46,738.65,20.47-35.46,20.5,35.41L875.59,33.66ZM426.46,696.45L36.55,21.1h779.83l-7.25,12.56H59.28l375.45,648.47-8.27,14.33h0ZM796.94,54.76l-350.04,606.28L95.88,54.76h701.06ZM821.31,54.76h17.68l-371.56,641.73-8.33-14.38L821.31,54.76Z"/>
        <path class="cls-1" d="M424.19,199.65l24.38,42.2,51.51,89.21,24.36,42.2,24.38-42.2-24.38-42.2-27.13-47.01h103.02l24.36-42.2,13.05-22.62,24.38-42.2h-275.33l24.36,42.2,13.05,22.62h-.01ZM589,177.04l-13.05,22.62h-103.02l-13.05-22.62h129.12Z"/>
        <polygon class="cls-1" points="371.36 284.05 322.08 284.05 424.78 461.5 449.13 503.71 473.51 461.5 487.24 437.71 511.63 395.49 487.24 353.28 422.93 241.85 398.56 199.65 385.5 177.04 361.14 134.84 236.16 134.84 260.53 177.04 336.76 177.04 349.82 199.65 374.19 241.85 462.89 395.49 449.13 419.3 371.36 284.05"/>
      </g>
    </g>
    <g>
      <g>
        <path class="cls-1" d="M510.03,1447.39c7.63,0,14.8,1.35,21.53,4.03,6.73,2.69,12.57,6.35,17.54,10.98,4.97,4.63,8.88,10.08,11.74,16.33,2.86,6.25,4.29,12.95,4.29,20.09s-1.43,13.67-4.29,19.88c-2.86,6.21-6.77,11.63-11.74,16.26-4.97,4.63-10.81,8.29-17.54,10.98-6.73,2.69-13.9,4.03-21.53,4.03s-14.78-1.34-21.45-4.03c-6.67-2.69-12.49-6.35-17.46-10.98-4.97-4.63-8.88-10.06-11.74-16.26-2.86-6.21-4.29-12.84-4.29-19.88s1.43-13.83,4.29-20.09c2.86-6.26,6.78-11.7,11.74-16.33,4.97-4.63,10.79-8.29,17.46-10.98,6.68-2.69,13.83-4.03,21.45-4.03ZM510.03,1535.66c5.22,0,10.16-.97,14.83-2.91,4.67-1.94,8.73-4.57,12.19-7.89,3.46-3.32,6.2-7.23,8.21-11.7,2.01-4.48,3.01-9.26,3.01-14.33s-1-9.88-3.01-14.4c-2.01-4.53-4.74-8.47-8.21-11.84-3.46-3.37-7.53-6.02-12.19-7.96-4.67-1.94-9.61-2.91-14.83-2.91s-10.14.97-14.75,2.91c-4.62,1.94-8.66,4.59-12.12,7.96-3.46,3.37-6.2,7.32-8.2,11.84-2.01,4.52-3.01,9.32-3.01,14.4s1,9.86,3.01,14.33c2.01,4.48,4.74,8.38,8.2,11.7,3.46,3.32,7.5,5.96,12.12,7.89,4.62,1.94,9.54,2.91,14.75,2.91Z"/>
        <path class="cls-1" d="M820.49,1447.39c7.63,0,14.8,1.35,21.53,4.03,6.73,2.69,12.57,6.35,17.54,10.98,4.97,4.63,8.88,10.08,11.74,16.33,2.86,6.25,4.29,12.95,4.29,20.09s-1.43,13.67-4.29,19.88c-2.86,6.21-6.77,11.63-11.74,16.26-4.97,4.63-10.81,8.29-17.54,10.98-6.73,2.69-13.9,4.03-21.53,4.03s-14.78-1.34-21.45-4.03c-6.67-2.69-12.49-6.35-17.46-10.98-4.97-4.63-8.88-10.06-11.74-16.26-2.86-6.21-4.29-12.84-4.29-19.88s1.43-13.83,4.29-20.09c2.86-6.26,6.78-11.7,11.74-16.33,4.97-4.63,10.79-8.29,17.46-10.98,6.68-2.69,13.83-4.03,21.45-4.03ZM820.49,1535.66c5.22,0,10.16-.97,14.83-2.91,4.67-1.94,8.73-4.57,12.19-7.89,3.46-3.32,6.2-7.23,8.21-11.7,2.01-4.48,3.01-9.26,3.01-14.33s-1-9.88-3.01-14.4c-2.01-4.53-4.74-8.47-8.21-11.84-3.46-3.37-7.53-6.02-12.19-7.96-4.67-1.94-9.61-2.91-14.83-2.91s-10.14.97-14.75,2.91c-4.62,1.94-8.66,4.59-12.12,7.96-3.46,3.37-6.2,7.32-8.2,11.84-2.01,4.52-3.01,9.32-3.01,14.4s1,9.86,3.01,14.33c2.01,4.48,4.74,8.38,8.2,11.7,3.46,3.32,7.5,5.96,12.12,7.89,4.62,1.94,9.54,2.91,14.75,2.91Z"/>
        <path class="cls-1" d="M84.02,1549.98h-19.48l-44.92-43.23h27.59c3.39,0,6.5-.65,9.33-1.95,2.83-1.3,5.3-3.01,7.4-5.15,2.11-2.13,3.76-4.56,4.94-7.3,1.18-2.73,1.77-5.58,1.77-8.55s-.59-5.82-1.77-8.55c-1.18-2.73-2.83-5.17-4.94-7.3-2.11-2.13-4.58-3.85-7.4-5.14-2.83-1.3-5.94-1.95-9.33-1.95H0l7.07-13.07h38.14c9.26,0,17.38,1.99,24.38,5.98,4.01,2.32,7.43,5.14,10.26,8.48,2.83,3.34,4.96,7.09,6.4,11.26.41,1.02.67,1.9.77,2.64,0,.28.05.46.15.56.1.56.18,1.11.23,1.67.05.56.13,1.07.23,1.53.1.83.18,1.39.23,1.95.05.56.08,1.16.08,1.81,0,.93-.02,1.53-.08,2.09-.05.56-.13,1.11-.23,1.67l-.46,3.48c-.1.09-.15.28-.15.56-.1.46-.21.88-.31,1.25-.1.37-.26.79-.46,1.25-1.44,4.26-3.57,8.06-6.4,11.4-2.83,3.34-6.25,6.16-10.26,8.48-3.39,1.85-7.15,3.31-11.26,4.38-1.92.5-3.89.88-5.92,1.14l31.63,30.62Z"/>
        <path class="cls-1" d="M358.07,1506.75c3.39,0,6.5-.65,9.33-1.95,2.83-1.3,5.3-3.01,7.41-5.15,2.11-2.13,3.75-4.56,4.94-7.3,1.18-2.73,1.77-5.58,1.77-8.55s-.59-5.82-1.77-8.55c-1.18-2.73-2.83-5.17-4.94-7.3-2.11-2.13-4.58-3.85-7.41-5.14-2.83-1.3-5.94-1.95-9.33-1.95h-38.61l7.07-13.07h29.54c9.26,0,17.38,1.99,24.37,5.98,4.01,2.32,7.43,5.14,10.26,8.48,2.83,3.34,4.96,7.09,6.4,11.26.41,1.02.67,1.9.77,2.64,0,.28.05.46.16.56.1.56.18,1.11.23,1.67.05.56.13,1.07.23,1.53.1.83.18,1.39.23,1.95.05.56.08,1.16.08,1.81,0,.93-.02,1.53-.08,2.09-.05.56-.13,1.11-.23,1.67l-.46,3.48c-.1.09-.16.28-.16.56-.1.46-.21.88-.31,1.25-.1.37-.26.79-.46,1.25-1.44,4.26-3.57,8.06-6.4,11.4-2.83,3.34-6.25,6.16-10.26,8.48-3.39,1.85-7.15,3.31-11.26,4.38-4.11,1.07-8.48,1.6-13.11,1.6h-20.1v30.17h-16.51v-43.23h38.61Z"/>
        <path class="cls-1" d="M649.49,1506.08c-15.49,0-25.7-14.17-25.7-28.74s10.09-29.19,25.7-29.19h52.12l-7.07,14.03h-45.06c-8.05,0-13.25,7.55-13.25,15.05s5.31,14.82,13.25,14.82h30.36c15.49,0,25.7,14.17,25.7,28.74s-10.09,29.19-25.7,29.19h-53.89l7.07-14.03h46.83c8.05,0,13.25-7.55,13.25-15.05s-5.31-14.82-13.25-14.82h-30.36Z"/>
        <polygon class="cls-1" points="189.34 1447.66 235.34 1549.98 218.22 1549.98 189.35 1488.14 160.49 1549.98 143.37 1549.98 189.34 1447.66"/>
      </g>
      <g>
        <polygon class="cls-2" points="495.07 1259.4 495.07 1346.84 541.65 1346.84 541.65 1361.44 478.57 1361.44 478.57 1259.4 495.07 1259.4"/>
        <path class="cls-1" d="M664.6,1258.85c7.63,0,14.8,1.35,21.53,4.03,6.73,2.69,12.57,6.35,17.54,10.98,4.97,4.63,8.88,10.08,11.74,16.33,2.86,6.25,4.29,12.95,4.29,20.09s-1.43,13.67-4.29,19.88c-2.86,6.21-6.77,11.63-11.74,16.26-4.97,4.63-10.81,8.29-17.54,10.98-6.73,2.69-13.9,4.03-21.53,4.03s-14.78-1.34-21.45-4.03c-6.67-2.69-12.49-6.35-17.46-10.98-4.97-4.63-8.88-10.06-11.74-16.26-2.86-6.21-4.29-12.84-4.29-19.88s1.43-13.83,4.29-20.09c2.86-6.26,6.78-11.7,11.74-16.33,4.97-4.63,10.79-8.29,17.46-10.98,6.68-2.69,13.83-4.03,21.45-4.03ZM664.6,1347.12c5.22,0,10.16-.97,14.83-2.91,4.67-1.94,8.73-4.57,12.19-7.89,3.46-3.32,6.2-7.23,8.21-11.7,2.01-4.48,3.01-9.26,3.01-14.33s-1-9.88-3.01-14.4c-2.01-4.53-4.74-8.47-8.21-11.84-3.46-3.37-7.53-6.02-12.19-7.96-4.67-1.94-9.61-2.91-14.83-2.91s-10.14.97-14.75,2.91c-4.62,1.94-8.66,4.59-12.12,7.96-3.46,3.37-6.2,7.32-8.2,11.84-2.01,4.52-3.01,9.32-3.01,14.4s1,9.86,3.01,14.33c2.01,4.48,4.74,8.38,8.2,11.7,3.46,3.32,7.5,5.96,12.12,7.89,4.62,1.94,9.54,2.91,14.75,2.91Z"/>
        <path class="cls-1" d="M38.61,1318.21c3.39,0,6.5-.65,9.33-1.95,2.83-1.3,5.3-3.01,7.41-5.15,2.11-2.13,3.75-4.56,4.94-7.3,1.18-2.73,1.77-5.58,1.77-8.55s-.59-5.82-1.77-8.55c-1.18-2.73-2.83-5.17-4.94-7.3-2.11-2.13-4.58-3.85-7.41-5.14-2.83-1.3-5.94-1.95-9.33-1.95H0l7.07-13.07h29.54c9.26,0,17.38,1.99,24.37,5.98,4.01,2.32,7.43,5.14,10.26,8.48,2.83,3.34,4.96,7.09,6.4,11.26.41,1.02.67,1.9.77,2.64,0,.28.05.46.16.56.1.56.18,1.11.23,1.67.05.56.13,1.07.23,1.53.1.83.18,1.39.23,1.95.05.56.08,1.16.08,1.81,0,.93-.02,1.53-.08,2.09-.05.56-.13,1.11-.23,1.67l-.46,3.48c-.1.09-.16.28-.16.56-.1.46-.21.88-.31,1.25-.1.37-.26.79-.46,1.25-1.44,4.26-3.57,8.06-6.4,11.4-2.83,3.34-6.25,6.16-10.26,8.48-3.39,1.85-7.15,3.31-11.26,4.38-4.11,1.07-8.48,1.6-13.11,1.6h-20.1v30.17H0v-43.23h38.61Z"/>
        <path class="cls-1" d="M305.87,1310.28v-50.28h15.09v48.52c0,5.08,1,9.86,3.01,14.33,2.01,4.48,4.74,8.38,8.21,11.7,3.46,3.32,7.5,5.95,12.12,7.89,4.62,1.94,9.53,2.91,14.75,2.91s10.16-.97,14.83-2.91c4.67-1.94,8.73-4.57,12.19-7.89,3.46-3.32,6.2-7.23,8.21-11.7,2.01-4.48,3.01-9.26,3.01-14.33v-48.52h15.09v50.28c0,14.66-3.17,24.16-14.27,36.14-4.62,4.99-10.81,8.29-17.54,10.98-6.73,2.69-13.9,4.03-21.53,4.03s-14.78-1.34-21.45-4.03c-6.67-2.69-12.76-6.08-17.46-10.98-8.95-9.34-14.27-21.04-14.27-36.14Z"/>
        <polygon class="cls-1" points="189.34 1259.13 235.34 1361.44 218.22 1361.44 189.35 1299.6 160.49 1361.44 143.37 1361.44 189.34 1259.13"/>
      </g>
      <g>
        <path class="cls-1" d="M510.03,1070.31c7.63,0,14.8,1.35,21.53,4.03,6.73,2.69,12.57,6.35,17.54,10.98,4.97,4.63,8.88,10.08,11.74,16.33,2.86,6.25,4.29,12.95,4.29,20.09s-1.43,13.67-4.29,19.88c-2.86,6.21-6.77,11.63-11.74,16.26-4.97,4.63-10.81,8.29-17.54,10.98-6.73,2.69-13.9,4.03-21.53,4.03s-14.78-1.34-21.45-4.03c-6.67-2.69-12.49-6.35-17.46-10.98-4.97-4.63-8.88-10.06-11.74-16.26-2.86-6.21-4.29-12.84-4.29-19.88s1.43-13.83,4.29-20.09c2.86-6.26,6.78-11.7,11.74-16.33,4.97-4.63,10.79-8.29,17.46-10.98,6.68-2.69,13.83-4.03,21.45-4.03ZM510.03,1158.59c5.22,0,10.16-.97,14.83-2.91,4.67-1.94,8.73-4.57,12.19-7.89,3.46-3.32,6.2-7.23,8.21-11.7,2.01-4.48,3.01-9.26,3.01-14.33s-1-9.88-3.01-14.4c-2.01-4.53-4.74-8.47-8.21-11.84-3.46-3.37-7.53-6.02-12.19-7.96-4.67-1.94-9.61-2.91-14.83-2.91s-10.14.97-14.75,2.91c-4.62,1.94-8.66,4.59-12.12,7.96-3.46,3.37-6.2,7.32-8.2,11.84-2.01,4.52-3.01,9.32-3.01,14.4s1,9.86,3.01,14.33c2.01,4.48,4.74,8.38,8.2,11.7,3.46,3.32,7.5,5.96,12.12,7.89,4.62,1.94,9.54,2.91,14.75,2.91Z"/>
        <path class="cls-1" d="M189.28,1070.31c7.63,0,14.8,1.35,21.53,4.03,6.73,2.69,12.57,6.35,17.54,10.98,4.97,4.63,8.88,10.08,11.74,16.33,2.86,6.25,4.29,12.95,4.29,20.09s-1.43,13.67-4.29,19.88c-2.86,6.21-6.77,11.63-11.74,16.26-4.97,4.63-10.81,8.29-17.54,10.98-6.73,2.69-13.9,4.03-21.53,4.03s-14.78-1.34-21.45-4.03c-6.67-2.69-12.49-6.35-17.46-10.98-4.97-4.63-8.88-10.06-11.74-16.26-2.86-6.21-4.29-12.84-4.29-19.88s1.43-13.83,4.29-20.09c2.86-6.26,6.78-11.7,11.74-16.33,4.97-4.63,10.79-8.29,17.46-10.98,6.68-2.69,13.83-4.03,21.45-4.03ZM189.28,1158.59c5.22,0,10.16-.97,14.83-2.91,4.67-1.94,8.73-4.57,12.19-7.89,3.46-3.32,6.2-7.23,8.21-11.7,2.01-4.48,3.01-9.26,3.01-14.33s-1-9.88-3.01-14.4c-2.01-4.53-4.74-8.47-8.21-11.84-3.46-3.37-7.53-6.02-12.19-7.96-4.67-1.94-9.61-2.91-14.83-2.91s-10.14.97-14.75,2.91c-4.62,1.94-8.66,4.59-12.12,7.96-3.46,3.37-6.2,7.32-8.2,11.84-2.01,4.52-3.01,9.32-3.01,14.4s1,9.86,3.01,14.33c2.01,4.48,4.74,8.38,8.2,11.7,3.46,3.32,7.5,5.96,12.12,7.89,4.62,1.94,9.54,2.91,14.75,2.91Z"/>
        <polygon class="cls-1" points="359.11 1070.59 405.11 1172.9 387.99 1172.9 359.13 1111.06 330.27 1172.9 313.14 1172.9 359.11 1070.59"/>
        <path class="cls-1" d="M21.2,1168.87c-6.63,2.65-13.69,3.99-21.2,4.03v-14.32c5.1-.04,9.93-1.01,14.5-2.91,4.67-1.94,8.73-4.57,12.19-7.89,3.46-3.32,6.2-7.23,8.21-11.7,2.01-4.48,3.01-9.26,3.01-14.33v-50.28h15.1v50.28c0,14.66-3.17,24.16-14.27,36.14-4.61,4.99-10.81,8.29-17.54,10.98Z"/>
      </g>
    </g>
  </g>
</svg>