<?xml version="1.0" encoding="UTF-8"?>
<svg id="Camada_2" xmlns="http://www.w3.org/2000/svg" viewBox="0 0 1626 571.64">
  <defs>
    <style>
      .cls-1, .cls-2 {
        fill: #141414;
      }

      .cls-2 {
        fill-rule: evenodd;
      }
    </style>
  </defs>
  <g id="Camada_2-2" data-name="Camada_2">
    <g>
      <g>
        <path class="cls-1" d="M677.62,26.05h-32.58l15.04-26.05H0l330.04,571.64,15.84-27.44,15.87,27.41L677.62,26.05ZM330.04,538.98L28.28,16.33h603.51l-5.61,9.72H45.88l290.56,501.85-6.4,11.09ZM616.75,42.38l-270.89,469.2L74.2,42.38h542.55ZM635.61,42.38h13.69l-287.55,496.64-6.45-11.13L635.61,42.38Z"/>
        <path class="cls-1" d="M328.28,154.51l18.87,32.66,39.86,69.04,18.85,32.66,18.86-32.66-18.86-32.66-21-36.38h79.72l18.85-32.66,10.1-17.5,18.87-32.66h-213.08l18.85,32.66,10.1,17.5ZM455.83,137.01l-10.1,17.5h-79.72l-10.1-17.5h99.93Z"/>
        <polygon class="cls-1" points="287.4 219.83 249.26 219.83 328.73 357.15 347.58 389.82 366.45 357.15 377.08 338.74 395.95 306.07 377.08 273.4 327.3 187.17 308.44 154.51 298.33 137.01 279.49 104.35 182.77 104.35 201.62 137.01 260.62 137.01 270.73 154.51 289.58 187.17 358.23 306.07 347.58 324.5 287.4 219.83"/>
      </g>
      <g>
        <g>
          <path class="cls-1" d="M1268.43,411.22c7.46,0,14.48,1.32,21.06,3.94,6.58,2.63,12.3,6.21,17.16,10.74,4.86,4.53,8.69,9.86,11.49,15.98,2.8,6.12,4.2,12.67,4.2,19.65s-1.4,13.37-4.2,19.45c-2.8,6.07-6.63,11.38-11.49,15.91-4.86,4.53-10.58,8.11-17.16,10.74-6.58,2.63-13.6,3.94-21.06,3.94s-14.46-1.31-20.99-3.94c-6.53-2.63-12.22-6.21-17.08-10.74-4.86-4.53-8.69-9.84-11.49-15.91-2.8-6.07-4.2-12.56-4.2-19.45s1.4-13.53,4.2-19.65c2.8-6.12,6.63-11.45,11.49-15.98,4.86-4.53,10.55-8.11,17.08-10.74,6.53-2.63,13.52-3.94,20.99-3.94ZM1268.43,497.57c5.11,0,9.94-.95,14.5-2.84,4.56-1.9,8.54-4.47,11.93-7.72,3.39-3.25,6.06-7.07,8.03-11.45,1.96-4.38,2.94-9.05,2.94-14.02s-.98-9.66-2.94-14.09c-1.96-4.43-4.64-8.29-8.03-11.58-3.39-3.3-7.36-5.89-11.93-7.79-4.56-1.9-9.4-2.84-14.5-2.84s-9.92.95-14.43,2.84c-4.52,1.9-8.47,4.49-11.85,7.79-3.39,3.3-6.06,7.16-8.02,11.58-1.96,4.43-2.95,9.12-2.95,14.09s.98,9.64,2.95,14.02c1.96,4.38,4.64,8.19,8.02,11.45,3.39,3.25,7.34,5.83,11.85,7.72,4.52,1.9,9.33,2.84,14.43,2.84Z"/>
          <path class="cls-1" d="M1572.1,411.22c7.46,0,14.48,1.32,21.06,3.94,6.58,2.63,12.3,6.21,17.16,10.74,4.86,4.53,8.69,9.86,11.49,15.98,2.8,6.12,4.2,12.67,4.2,19.65s-1.4,13.37-4.2,19.45c-2.8,6.07-6.63,11.38-11.49,15.91-4.86,4.53-10.58,8.11-17.16,10.74-6.58,2.63-13.6,3.94-21.06,3.94s-14.46-1.31-20.99-3.94c-6.53-2.63-12.22-6.21-17.08-10.74-4.86-4.53-8.69-9.84-11.49-15.91-2.8-6.07-4.2-12.56-4.2-19.45s1.4-13.53,4.2-19.65c2.8-6.12,6.63-11.45,11.49-15.98,4.86-4.53,10.55-8.11,17.08-10.74,6.53-2.63,13.52-3.94,20.99-3.94ZM1572.1,497.57c5.11,0,9.94-.95,14.5-2.84,4.56-1.9,8.54-4.47,11.93-7.72,3.39-3.25,6.06-7.07,8.03-11.45,1.96-4.38,2.94-9.05,2.94-14.02s-.98-9.66-2.94-14.09c-1.96-4.43-4.64-8.29-8.03-11.58-3.39-3.3-7.36-5.89-11.93-7.79-4.56-1.9-9.4-2.84-14.5-2.84s-9.92.95-14.43,2.84c-4.52,1.9-8.47,4.49-11.85,7.79-3.39,3.3-6.06,7.16-8.02,11.58-1.96,4.43-2.95,9.12-2.95,14.09s.98,9.64,2.95,14.02c1.96,4.38,4.64,8.19,8.02,11.45,3.39,3.25,7.34,5.83,11.85,7.72,4.52,1.9,9.33,2.84,14.43,2.84Z"/>
          <path class="cls-1" d="M851.72,511.57h-19.06l-43.94-42.29h26.99c3.32,0,6.36-.63,9.13-1.9,2.77-1.27,5.18-2.95,7.24-5.03,2.06-2.08,3.67-4.46,4.83-7.14,1.16-2.67,1.74-5.46,1.74-8.36s-.58-5.69-1.74-8.36c-1.16-2.67-2.77-5.05-4.83-7.14-2.06-2.09-4.48-3.76-7.24-5.03-2.77-1.27-5.81-1.9-9.13-1.9h-46.18l6.91-12.78h37.31c9.05,0,17,1.95,23.84,5.85,3.92,2.27,7.27,5.03,10.03,8.3,2.77,3.26,4.85,6.93,6.26,11.01.4,1,.65,1.86.76,2.58,0,.27.05.45.15.54.1.54.18,1.09.23,1.63.05.54.12,1.04.23,1.5.1.82.18,1.36.23,1.9.05.54.07,1.13.07,1.77,0,.91-.02,1.5-.07,2.04-.05.54-.13,1.09-.23,1.63l-.45,3.4c-.1.09-.15.27-.15.54-.1.45-.2.86-.3,1.22-.1.36-.25.77-.45,1.22-1.41,4.17-3.5,7.89-6.26,11.15-2.77,3.26-6.11,6.03-10.03,8.29-3.32,1.81-6.99,3.24-11.02,4.28-1.88.49-3.81.86-5.79,1.12l30.94,29.95Z"/>
          <path class="cls-1" d="M1119.78,469.28c3.32,0,6.36-.63,9.13-1.9,2.77-1.27,5.18-2.95,7.24-5.03,2.06-2.08,3.67-4.46,4.83-7.14,1.16-2.67,1.73-5.46,1.73-8.36s-.58-5.69-1.73-8.36c-1.16-2.67-2.77-5.05-4.83-7.14-2.06-2.09-4.48-3.76-7.24-5.03-2.77-1.27-5.81-1.9-9.13-1.9h-37.77l6.91-12.78h28.9c9.05,0,17,1.95,23.84,5.85,3.92,2.27,7.27,5.03,10.04,8.3,2.77,3.26,4.85,6.93,6.26,11.01.4,1,.65,1.86.75,2.58,0,.27.05.45.15.54.1.54.18,1.09.23,1.63.05.54.12,1.04.23,1.5.1.82.18,1.36.23,1.9.05.54.07,1.13.07,1.77,0,.91-.02,1.5-.07,2.04-.05.54-.12,1.09-.23,1.63l-.45,3.4c-.1.09-.15.27-.15.54-.1.45-.2.86-.3,1.22-.1.36-.25.77-.45,1.22-1.41,4.17-3.5,7.89-6.26,11.15-2.77,3.26-6.11,6.03-10.04,8.29-3.32,1.81-6.99,3.24-11.02,4.28-4.02,1.04-8.3,1.56-12.83,1.56h-19.66v29.51h-16.15v-42.29h37.77Z"/>
          <path class="cls-1" d="M1404.84,468.63c-15.15,0-25.14-13.86-25.14-28.11s9.87-28.55,25.14-28.55h50.99l-6.91,13.72h-44.08c-7.87,0-12.96,7.38-12.96,14.72s5.19,14.5,12.96,14.5h29.7c15.15,0,25.14,13.86,25.14,28.11s-9.87,28.55-25.14,28.55h-52.71l6.91-13.72h45.8c7.87,0,12.96-7.38,12.96-14.72s-5.19-14.5-12.96-14.5h-29.7Z"/>
          <polygon class="cls-1" points="954.73 411.49 999.73 511.57 982.98 511.57 954.75 451.08 926.52 511.57 909.76 511.57 954.73 411.49"/>
        </g>
        <g>
          <polygon class="cls-2" points="1253.79 227.34 1253.79 312.87 1299.35 312.87 1299.35 327.15 1237.65 327.15 1237.65 227.34 1253.79 227.34"/>
          <path class="cls-1" d="M1419.61,226.8c7.46,0,14.48,1.32,21.06,3.94,6.58,2.63,12.3,6.21,17.16,10.74,4.86,4.53,8.69,9.86,11.49,15.98,2.8,6.12,4.2,12.67,4.2,19.65s-1.4,13.37-4.2,19.45c-2.8,6.07-6.63,11.38-11.49,15.91-4.86,4.53-10.58,8.11-17.16,10.74-6.58,2.63-13.6,3.94-21.06,3.94s-14.46-1.31-20.99-3.94c-6.53-2.63-12.22-6.21-17.08-10.74-4.86-4.53-8.69-9.84-11.49-15.91-2.8-6.07-4.2-12.56-4.2-19.45s1.4-13.53,4.2-19.65c2.8-6.12,6.63-11.45,11.49-15.98,4.86-4.53,10.55-8.11,17.08-10.74,6.53-2.63,13.52-3.94,20.99-3.94ZM1419.61,313.15c5.11,0,9.94-.95,14.5-2.84,4.56-1.9,8.54-4.47,11.93-7.72,3.39-3.25,6.06-7.07,8.03-11.45,1.96-4.38,2.94-9.05,2.94-14.02s-.98-9.66-2.94-14.09c-1.96-4.43-4.64-8.29-8.03-11.58-3.39-3.3-7.36-5.89-11.93-7.79-4.56-1.9-9.4-2.84-14.5-2.84s-9.92.95-14.43,2.84c-4.52,1.9-8.47,4.49-11.85,7.79-3.39,3.3-6.06,7.16-8.02,11.58-1.96,4.43-2.95,9.12-2.95,14.09s.98,9.64,2.95,14.02c1.96,4.38,4.64,8.19,8.02,11.45,3.39,3.25,7.34,5.83,11.85,7.72,4.52,1.9,9.33,2.84,14.43,2.84Z"/>
          <path class="cls-1" d="M807.3,284.86c3.32,0,6.36-.63,9.13-1.9,2.77-1.27,5.18-2.95,7.24-5.03,2.06-2.08,3.67-4.46,4.83-7.14,1.16-2.67,1.73-5.46,1.73-8.36s-.58-5.69-1.73-8.36c-1.16-2.67-2.77-5.05-4.83-7.14-2.06-2.09-4.48-3.76-7.24-5.03-2.77-1.27-5.81-1.9-9.13-1.9h-37.77l6.91-12.78h28.9c9.05,0,17,1.95,23.84,5.85,3.92,2.27,7.27,5.03,10.04,8.3,2.77,3.26,4.85,6.93,6.26,11.01.4,1,.65,1.86.75,2.58,0,.27.05.45.15.54.1.54.18,1.09.23,1.63.05.54.12,1.04.23,1.5.1.82.18,1.36.23,1.9.05.54.07,1.13.07,1.77,0,.91-.02,1.5-.07,2.04-.05.54-.12,1.09-.23,1.63l-.45,3.4c-.1.09-.15.27-.15.54-.1.45-.2.86-.3,1.22-.1.36-.25.77-.45,1.22-1.41,4.17-3.5,7.89-6.26,11.15-2.77,3.26-6.11,6.03-10.04,8.29-3.32,1.81-6.99,3.24-11.02,4.28-4.02,1.04-8.3,1.56-12.83,1.56h-19.66v29.51h-16.15v-42.29h37.77Z"/>
          <path class="cls-1" d="M1068.72,277.11v-49.19h14.76v47.46c0,4.97.98,9.64,2.95,14.02,1.96,4.38,4.64,8.2,8.03,11.45,3.39,3.25,7.34,5.82,11.85,7.72,4.52,1.9,9.33,2.84,14.43,2.84s9.94-.95,14.51-2.84c4.56-1.9,8.54-4.47,11.93-7.72,3.39-3.25,6.06-7.07,8.03-11.45,1.96-4.38,2.95-9.05,2.95-14.02v-47.46h14.76v49.19c0,14.34-3.1,23.63-13.96,35.36-4.52,4.88-10.58,8.11-17.16,10.74-6.58,2.63-13.6,3.94-21.06,3.94s-14.46-1.31-20.98-3.94c-6.53-2.63-12.48-5.95-17.08-10.74-8.75-9.13-13.96-20.58-13.96-35.36Z"/>
          <polygon class="cls-1" points="954.73 227.07 999.73 327.15 982.98 327.15 954.75 266.66 926.52 327.15 909.76 327.15 954.73 227.07"/>
        </g>
        <g>
          <path class="cls-1" d="M1268.43,42.38c7.46,0,14.48,1.32,21.06,3.94,6.58,2.63,12.3,6.21,17.16,10.74,4.86,4.53,8.69,9.86,11.49,15.98,2.8,6.12,4.2,12.67,4.2,19.65s-1.4,13.37-4.2,19.45c-2.8,6.07-6.63,11.38-11.49,15.91-4.86,4.53-10.58,8.11-17.16,10.74-6.58,2.63-13.6,3.94-21.06,3.94s-14.46-1.31-20.99-3.94c-6.53-2.63-12.22-6.21-17.08-10.74-4.86-4.53-8.69-9.84-11.49-15.91-2.8-6.07-4.2-12.56-4.2-19.45s1.4-13.53,4.2-19.65c2.8-6.12,6.63-11.45,11.49-15.98,4.86-4.53,10.55-8.11,17.08-10.74,6.53-2.63,13.52-3.94,20.99-3.94ZM1268.43,128.73c5.11,0,9.94-.95,14.5-2.84,4.56-1.9,8.54-4.47,11.93-7.72,3.39-3.25,6.06-7.07,8.03-11.45,1.96-4.38,2.94-9.05,2.94-14.02s-.98-9.66-2.94-14.09c-1.96-4.43-4.64-8.29-8.03-11.58-3.39-3.3-7.36-5.89-11.93-7.79-4.56-1.9-9.4-2.84-14.5-2.84s-9.92.95-14.43,2.84c-4.52,1.9-8.47,4.49-11.85,7.79-3.39,3.3-6.06,7.16-8.02,11.58-1.96,4.43-2.95,9.12-2.95,14.09s.98,9.64,2.95,14.02c1.96,4.38,4.64,8.19,8.02,11.45,3.39,3.25,7.34,5.83,11.85,7.72,4.52,1.9,9.33,2.84,14.43,2.84Z"/>
          <path class="cls-1" d="M954.67,42.38c7.46,0,14.48,1.32,21.06,3.94,6.58,2.63,12.3,6.21,17.16,10.74,4.86,4.53,8.69,9.86,11.49,15.98,2.8,6.12,4.2,12.67,4.2,19.65s-1.4,13.37-4.2,19.45c-2.8,6.07-6.63,11.38-11.49,15.91-4.86,4.53-10.58,8.11-17.16,10.74-6.58,2.63-13.6,3.94-21.06,3.94s-14.46-1.31-20.99-3.94c-6.53-2.63-12.22-6.21-17.08-10.74-4.86-4.53-8.69-9.84-11.49-15.91-2.8-6.07-4.2-12.56-4.2-19.45s1.4-13.53,4.2-19.65c2.8-6.12,6.63-11.45,11.49-15.98,4.86-4.53,10.55-8.11,17.08-10.74,6.53-2.63,13.52-3.94,20.99-3.94ZM954.67,128.73c5.11,0,9.94-.95,14.5-2.84,4.56-1.9,8.54-4.47,11.93-7.72,3.39-3.25,6.06-7.07,8.03-11.45,1.96-4.38,2.94-9.05,2.94-14.02s-.98-9.66-2.94-14.09c-1.96-4.43-4.64-8.29-8.03-11.58-3.39-3.3-7.36-5.89-11.93-7.79-4.56-1.9-9.4-2.84-14.5-2.84s-9.92.95-14.43,2.84c-4.52,1.9-8.47,4.49-11.85,7.79-3.39,3.3-6.06,7.16-8.02,11.58-1.96,4.43-2.95,9.12-2.95,14.09s.98,9.64,2.95,14.02c1.96,4.38,4.64,8.19,8.02,11.45,3.39,3.25,7.34,5.83,11.85,7.72,4.52,1.9,9.33,2.84,14.43,2.84Z"/>
          <polygon class="cls-1" points="1120.8 42.65 1165.8 142.73 1149.05 142.73 1120.82 82.24 1092.58 142.73 1075.83 142.73 1120.8 42.65"/>
          <path class="cls-1" d="M790.26,138.79c-6.48,2.59-13.39,3.9-20.73,3.94v-14.01c4.99-.04,9.71-.99,14.18-2.84,4.57-1.9,8.54-4.47,11.93-7.72,3.39-3.25,6.06-7.07,8.03-11.45,1.96-4.38,2.94-9.05,2.94-14.02v-49.19h14.77v49.19c0,14.34-3.1,23.63-13.96,35.36-4.51,4.88-10.58,8.11-17.16,10.74Z"/>
        </g>
      </g>
    </g>
  </g>
</svg>