<?xml version="1.0" encoding="UTF-8"?>
<svg id="Camada_2" xmlns="http://www.w3.org/2000/svg" viewBox="0 0 875.59 1549.98">
  <defs>
    <style>
      .cls-1 {
        fill: #141414;
      }
    </style>
  </defs>
  <g id="Camada_1-2" data-name="Camada_1">
    <g>
      <path class="cls-1" d="M875.59,33.66h-42.1L852.92,0H0l426.46,738.65,20.47-35.46,20.5,35.41L875.59,33.66ZM426.46,696.45L36.55,21.1h779.83l-7.25,12.56H59.28l375.45,648.47-8.27,14.33ZM796.94,54.76l-350.04,606.28L95.88,54.76h701.06ZM821.31,54.76h17.68l-371.56,641.73-8.33-14.38L821.31,54.76Z"/>
      <path class="cls-1" d="M424.19,199.65l24.38,42.2,51.51,89.21,24.36,42.2,24.38-42.2-24.38-42.2-27.13-47.01h103.02l24.36-42.2,13.05-22.62,24.38-42.2h-275.33l24.36,42.2,13.05,22.62ZM589,177.04l-13.05,22.62h-103.02l-13.05-22.62h129.12Z"/>
      <polygon class="cls-1" points="371.36 284.05 322.08 284.05 424.78 461.5 449.13 503.71 473.51 461.5 487.24 437.71 511.63 395.49 487.24 353.28 422.93 241.85 398.56 199.65 385.5 177.04 361.14 134.84 236.16 134.84 260.53 177.04 336.76 177.04 349.82 199.65 374.19 241.85 462.89 395.49 449.13 419.3 371.36 284.05"/>
    </g>
    <g>
      <g>
        <path class="cls-1" d="M506.65,1240.85v93.13h46.53v23.34h-69.87v-116.47h23.34Z"/>
        <path class="cls-1" d="M708.91,1258.02c11.42,11.41,17.12,25.12,17.12,41.11s-5.71,29.76-17.12,41.15c-11.42,11.39-25.12,17.09-41.11,17.09s-29.76-5.7-41.15-17.09c-11.39-11.39-17.09-25.11-17.09-41.15s5.7-29.7,17.09-41.11c11.39-11.42,25.11-17.12,41.15-17.12s29.7,5.71,41.11,17.12ZM643.12,1274.45c-6.82,6.86-10.22,15.09-10.22,24.68s3.41,17.86,10.22,24.68c6.82,6.82,15.04,10.22,24.68,10.22s17.81-3.41,24.68-10.22c6.86-6.82,10.3-15.04,10.3-24.68s-3.43-17.81-10.3-24.68c-6.87-6.87-15.09-10.3-24.68-10.3s-17.86,3.43-24.68,10.3Z"/>
        <path class="cls-1" d="M395.22,1240.85v69.87c0,12.86-4.57,23.85-13.69,32.95-9.13,9.1-20.1,13.66-32.91,13.66s-23.85-4.55-32.95-13.66c-9.11-9.1-13.66-20.09-13.66-32.95v-69.87h23.34v69.87c0,6.41,2.28,11.89,6.83,16.44,4.55,4.55,10.03,6.83,16.44,6.83s11.83-2.28,16.4-6.83c4.57-4.55,6.86-10.03,6.86-16.44v-69.87h23.34Z"/>
        <path class="cls-1" d="M69.58,1252.89c-8-8-17.61-11.99-28.83-11.99H0v116.47h23.34v-34.97h.09v-23.27h-.09v-34.97h17.41c4.82,0,8.94,1.72,12.36,5.17,3.42,3.45,5.13,7.55,5.13,12.32s-1.71,8.94-5.13,12.36c-3.42,3.42-7.54,5.13-12.36,5.13h-1.28v23.27h1.28c11.22,0,20.83-3.99,28.83-11.96,7.99-7.97,11.99-17.57,11.99-28.79s-4-20.76-11.99-28.76Z"/>
        <g>
          <polygon class="cls-1" points="194.7 1296.24 206.72 1267.44 197.23 1246.31 194.77 1240.89 192.24 1246.38 142.32 1357.37 147.23 1357.37 162.26 1357.37 163.27 1357.37 167.08 1357.37 185.64 1316.61 185.6 1316.61 194.7 1296.24"/>
          <polygon class="cls-1" points="215.76 1287.57 203.82 1316.49 203.88 1316.61 203.78 1316.61 203.78 1316.61 203.81 1316.65 203.26 1317.87 194.18 1339.88 214.35 1339.88 214.72 1340.75 222.23 1357.37 226.2 1357.37 227.14 1357.37 242.17 1357.37 247.09 1357.37 215.76 1287.57"/>
        </g>
      </g>
      <g>
        <path class="cls-1" d="M559.36,1450.63c11.42,11.41,17.12,25.12,17.12,41.11s-5.71,29.76-17.12,41.15c-11.42,11.39-25.12,17.09-41.11,17.09s-29.76-5.7-41.15-17.09c-11.39-11.39-17.09-25.11-17.09-41.15s5.7-29.7,17.09-41.11c11.39-11.42,25.11-17.12,41.15-17.12s29.7,5.71,41.11,17.12ZM493.57,1467.07c-6.82,6.86-10.22,15.09-10.22,24.68s3.41,17.86,10.22,24.68c6.82,6.82,15.04,10.22,24.68,10.22s17.81-3.41,24.68-10.22c6.86-6.82,10.3-15.04,10.3-24.68s-3.43-17.81-10.3-24.68c-6.87-6.87-15.09-10.3-24.68-10.3s-17.86,3.43-24.68,10.3Z"/>
        <path class="cls-1" d="M858.46,1450.63c11.42,11.41,17.12,25.12,17.12,41.11s-5.71,29.76-17.12,41.15c-11.42,11.39-25.12,17.09-41.11,17.09s-29.76-5.7-41.15-17.09c-11.39-11.39-17.09-25.11-17.09-41.15s5.7-29.7,17.09-41.11c11.39-11.42,25.11-17.12,41.15-17.12s29.7,5.71,41.11,17.12ZM792.68,1467.07c-6.82,6.86-10.22,15.09-10.22,24.68s3.41,17.86,10.22,24.68c6.82,6.82,15.04,10.22,24.68,10.22s17.81-3.41,24.68-10.22c6.86-6.82,10.3-15.04,10.3-24.68s-3.43-17.81-10.3-24.68c-6.87-6.87-15.09-10.3-24.68-10.3s-17.86,3.43-24.68,10.3Z"/>
        <path class="cls-1" d="M659.27,1500.34c-3.49-1.2-7.2-3.11-11.13-5.71-3.93-2.6-7.45-6.03-10.58-10.3-3.13-4.26-4.7-9.57-4.7-15.93,0-9.58,3.42-17.8,10.26-24.64,6.84-6.84,15.08-10.26,24.71-10.26s17.8,3.42,24.64,10.26c6.84,6.84,10.26,15.05,10.26,24.64h-23.27c0-3.18-1.14-5.91-3.43-8.2-2.29-2.29-5.02-3.43-8.2-3.43s-5.97,1.14-8.24,3.43c-2.26,2.29-3.4,5.02-3.4,8.2,0,4.14,1.67,7.29,5.02,9.43,3.35,2.14,5.89,3.46,7.62,3.94.82.29,3.05.97,6.68,2.02,3.64,1.06,7.47,2.82,11.49,5.27,4.02,2.46,7.65,5.77,10.88,9.94,3.23,4.17,4.84,9.5,4.84,16,0,9.63-3.42,17.87-10.26,24.71-6.84,6.84-15.05,10.26-24.64,10.26s-17.87-3.42-24.71-10.26c-6.84-6.84-10.26-15.08-10.26-24.71h23.34c0,3.23,1.13,5.97,3.4,8.24,2.26,2.26,5.01,3.4,8.24,3.4s5.91-1.13,8.2-3.4c2.29-2.26,3.43-5.01,3.43-8.24,0-4.91-1.96-8.09-5.89-9.54-3.93-1.45-6.59-2.43-7.99-2.96-.72-.24-2.83-.96-6.32-2.17Z"/>
        <path class="cls-1" d="M377.41,1445.5c-8-8-17.61-11.99-28.83-11.99h-40.75v116.47h23.34v-34.97h.09v-23.27h-.09v-34.97h17.41c4.82,0,8.94,1.72,12.36,5.17,3.42,3.45,5.13,7.55,5.13,12.32s-1.71,8.94-5.13,12.36c-3.42,3.42-7.54,5.13-12.36,5.13h-1.28v23.27h1.28c11.22,0,20.83-3.99,28.83-11.96,7.99-7.97,11.99-17.57,11.99-28.79s-4-20.76-11.99-28.76Z"/>
        <path class="cls-1" d="M74.17,1497.63c4.94-6.91,7.41-14.7,7.41-23.38,0-11.17-4-20.76-12-28.76-7.99-8-17.61-11.99-28.83-11.99h-1.28v23.27h1.28c4.82,0,8.93,1.72,12.36,5.17,3.42,3.45,5.13,7.55,5.13,12.32s-1.71,8.94-5.13,12.36c-3.42,3.42-7.54,5.13-12.36,5.13h-17.42v-34.97h.1v-23.27H0v116.47h23.34v-42.63l29.77,42.63h28.47l-26.3-37.65c7.66-2.89,13.96-7.79,18.89-14.7Z"/>
        <g>
          <polygon class="cls-1" points="194.7 1488.85 206.72 1460.06 197.23 1438.92 194.77 1433.51 192.24 1439 142.32 1549.98 147.23 1549.98 162.26 1549.98 163.27 1549.98 167.08 1549.98 185.64 1509.23 185.6 1509.23 194.7 1488.85"/>
          <polygon class="cls-1" points="215.76 1480.19 203.82 1509.11 203.88 1509.23 203.78 1509.23 203.78 1509.23 203.81 1509.26 203.26 1510.48 194.18 1532.49 214.35 1532.49 214.72 1533.36 222.23 1549.98 226.2 1549.98 227.14 1549.98 242.17 1549.98 247.09 1549.98 215.76 1480.19"/>
        </g>
      </g>
      <g>
        <path class="cls-1" d="M66.29,1048.26v69.87c0,12.86-4.56,23.85-13.69,32.95-9.13,9.1-20.1,13.66-32.91,13.66-1.49,0-2.96-.07-4.41-.22v-23.48c1.59.24,3.06.36,4.41.36,6.36,0,11.84-2.28,16.44-6.83,4.6-4.55,6.9-10.03,6.9-16.44v-69.87h23.27Z"/>
        <path class="cls-1" d="M235.81,1065.38c11.42,11.41,17.12,25.12,17.12,41.11s-5.71,29.76-17.12,41.15c-11.42,11.39-25.12,17.09-41.11,17.09s-29.76-5.7-41.15-17.09c-11.39-11.39-17.09-25.11-17.09-41.15s5.7-29.7,17.09-41.11c11.39-11.42,25.11-17.12,41.15-17.12s29.7,5.71,41.11,17.12ZM170.03,1081.82c-6.82,6.86-10.22,15.09-10.22,24.68s3.41,17.86,10.22,24.68c6.82,6.82,15.04,10.22,24.68,10.22s17.81-3.41,24.68-10.22c6.86-6.82,10.3-15.04,10.3-24.68s-3.43-17.81-10.3-24.68c-6.87-6.87-15.09-10.3-24.68-10.3s-17.86,3.43-24.68,10.3Z"/>
        <path class="cls-1" d="M543.64,1065.38c11.42,11.41,17.12,25.12,17.12,41.11s-5.71,29.76-17.12,41.15c-11.42,11.39-25.12,17.09-41.11,17.09s-29.76-5.7-41.15-17.09c-11.39-11.39-17.09-25.11-17.09-41.15s5.7-29.7,17.09-41.11c11.39-11.42,25.11-17.12,41.15-17.12s29.7,5.71,41.11,17.12ZM477.85,1081.82c-6.82,6.86-10.22,15.09-10.22,24.68s3.41,17.86,10.22,24.68c6.82,6.82,15.04,10.22,24.68,10.22s17.81-3.41,24.68-10.22c6.86-6.82,10.3-15.04,10.3-24.68s-3.43-17.81-10.3-24.68c-6.87-6.87-15.09-10.3-24.68-10.3s-17.86,3.43-24.68,10.3Z"/>
        <g>
          <polygon class="cls-1" points="348.61 1103.57 360.63 1074.77 351.14 1053.64 348.69 1048.22 346.16 1053.71 296.23 1164.7 301.14 1164.7 316.17 1164.7 317.18 1164.7 321 1164.7 339.55 1123.94 339.51 1123.94 348.61 1103.57"/>
          <polygon class="cls-1" points="369.67 1094.9 357.74 1123.82 357.79 1123.94 357.69 1123.94 357.69 1123.94 357.73 1123.98 357.17 1125.2 348.09 1147.21 368.27 1147.21 368.63 1148.08 376.14 1164.7 380.12 1164.7 381.06 1164.7 396.09 1164.7 401 1164.7 369.67 1094.9"/>
        </g>
      </g>
    </g>
  </g>
</svg>