<?xml version="1.0" encoding="UTF-8"?>
<svg id="Camada_2" xmlns="http://www.w3.org/2000/svg" viewBox="0 0 1626 566.18">
  <defs>
    <style>
      .cls-1 {
        fill: #141414;
      }
    </style>
  </defs>
  <g id="Camada_1-2" data-name="Camada_1">
    <g>
      <g>
        <path class="cls-1" d="M671.14,25.8h-32.27l14.9-25.8H0l326.88,566.18,15.69-27.18,15.72,27.14L671.14,25.8ZM326.88,533.83L28.01,16.17h597.74l-5.56,9.63H45.44l287.78,497.05-6.34,10.98ZM610.86,41.97l-268.3,464.71L73.49,41.97h537.37ZM629.53,41.97h13.55l-284.8,491.89-6.38-11.03L629.53,41.97Z"/>
        <path class="cls-1" d="M325.15,153.04l18.68,32.35,39.48,68.38,18.67,32.35,18.68-32.35-18.68-32.35-20.8-36.03h78.96l18.67-32.35,10.01-17.33,18.68-32.35h-211.04l18.67,32.35,10.01,17.33ZM451.47,135.7l-10.01,17.33h-78.96l-10.01-17.33h98.97Z"/>
        <polygon class="cls-1" points="284.65 217.73 246.88 217.73 325.59 353.74 344.26 386.1 362.95 353.74 373.47 335.5 392.16 303.14 373.47 270.79 324.18 185.38 305.5 153.04 295.48 135.7 276.82 103.36 181.02 103.36 199.7 135.7 258.13 135.7 268.14 153.04 286.82 185.38 354.81 303.14 344.26 321.4 284.65 217.73"/>
      </g>
      <g>
        <g>
          <path class="cls-1" d="M1257.06,224.84v93.13h46.53v23.34h-69.87v-116.47h23.34Z"/>
          <path class="cls-1" d="M1459.32,242c11.42,11.41,17.12,25.12,17.12,41.11s-5.71,29.76-17.12,41.15c-11.42,11.39-25.12,17.09-41.11,17.09s-29.76-5.7-41.15-17.09c-11.39-11.39-17.09-25.11-17.09-41.15s5.7-29.7,17.09-41.11c11.39-11.42,25.11-17.12,41.15-17.12s29.7,5.71,41.11,17.12ZM1393.54,258.44c-6.82,6.86-10.22,15.09-10.22,24.68s3.41,17.86,10.22,24.68c6.82,6.82,15.04,10.22,24.68,10.22s17.81-3.41,24.68-10.22c6.86-6.82,10.3-15.04,10.3-24.68s-3.43-17.81-10.3-24.68c-6.87-6.87-15.09-10.3-24.68-10.3s-17.86,3.43-24.68,10.3Z"/>
          <path class="cls-1" d="M1145.63,224.84v69.87c0,12.86-4.57,23.85-13.69,32.95-9.13,9.1-20.1,13.66-32.91,13.66s-23.85-4.55-32.95-13.66c-9.11-9.1-13.66-20.09-13.66-32.95v-69.87h23.34v69.87c0,6.41,2.28,11.89,6.83,16.44,4.55,4.55,10.03,6.83,16.44,6.83s11.83-2.28,16.4-6.83c4.57-4.55,6.86-10.03,6.86-16.44v-69.87h23.34Z"/>
          <path class="cls-1" d="M819.99,236.87c-8-8-17.61-11.99-28.83-11.99h-40.75v116.47h23.34v-34.97h.09v-23.27h-.09v-34.97h17.41c4.82,0,8.94,1.72,12.36,5.17,3.42,3.45,5.13,7.55,5.13,12.32s-1.71,8.94-5.13,12.36c-3.42,3.42-7.54,5.13-12.36,5.13h-1.28v23.27h1.28c11.22,0,20.83-3.99,28.83-11.96,7.99-7.97,11.99-17.57,11.99-28.79s-4-20.76-11.99-28.76Z"/>
          <g>
            <polygon class="cls-1" points="945.11 280.23 957.13 251.43 947.64 230.3 945.18 224.88 942.65 230.37 892.73 341.35 897.64 341.35 912.67 341.35 913.68 341.35 917.49 341.35 936.05 300.6 936.01 300.6 945.11 280.23"/>
            <polygon class="cls-1" points="966.17 271.56 954.23 300.48 954.29 300.6 954.19 300.6 954.19 300.6 954.22 300.64 953.67 301.86 944.59 323.87 964.76 323.87 965.13 324.74 972.64 341.35 976.61 341.35 977.55 341.35 992.58 341.35 997.5 341.35 966.17 271.56"/>
          </g>
        </g>
        <g>
          <path class="cls-1" d="M1309.77,434.62c11.42,11.41,17.12,25.12,17.12,41.11s-5.71,29.76-17.12,41.15c-11.42,11.39-25.12,17.09-41.11,17.09s-29.76-5.7-41.15-17.09c-11.39-11.39-17.09-25.11-17.09-41.15s5.7-29.7,17.09-41.11c11.39-11.42,25.11-17.12,41.15-17.12s29.7,5.71,41.11,17.12ZM1243.98,451.06c-6.82,6.86-10.22,15.09-10.22,24.68s3.41,17.86,10.22,24.68c6.82,6.82,15.04,10.22,24.68,10.22s17.81-3.41,24.68-10.22c6.86-6.82,10.3-15.04,10.3-24.68s-3.43-17.81-10.3-24.68c-6.87-6.87-15.09-10.3-24.68-10.3s-17.86,3.43-24.68,10.3Z"/>
          <path class="cls-1" d="M1608.88,434.62c11.42,11.41,17.12,25.12,17.12,41.11s-5.71,29.76-17.12,41.15c-11.42,11.39-25.12,17.09-41.11,17.09s-29.76-5.7-41.15-17.09c-11.39-11.39-17.09-25.11-17.09-41.15s5.7-29.7,17.09-41.11c11.39-11.42,25.11-17.12,41.15-17.12s29.7,5.71,41.11,17.12ZM1543.09,451.06c-6.82,6.86-10.22,15.09-10.22,24.68s3.41,17.86,10.22,24.68c6.82,6.82,15.04,10.22,24.68,10.22s17.81-3.41,24.68-10.22c6.86-6.82,10.3-15.04,10.3-24.68s-3.43-17.81-10.3-24.68c-6.87-6.87-15.09-10.3-24.68-10.3s-17.86,3.43-24.68,10.3Z"/>
          <path class="cls-1" d="M1409.68,484.33c-3.49-1.2-7.2-3.11-11.13-5.71-3.93-2.6-7.45-6.03-10.58-10.3-3.13-4.26-4.7-9.57-4.7-15.93,0-9.58,3.42-17.8,10.26-24.64,6.84-6.84,15.08-10.26,24.71-10.26s17.8,3.42,24.64,10.26c6.84,6.84,10.26,15.05,10.26,24.64h-23.27c0-3.18-1.14-5.91-3.43-8.2-2.29-2.29-5.02-3.43-8.2-3.43s-5.97,1.14-8.24,3.43c-2.26,2.29-3.4,5.02-3.4,8.2,0,4.14,1.67,7.29,5.02,9.43,3.35,2.14,5.89,3.46,7.62,3.94.82.29,3.05.97,6.68,2.02,3.64,1.06,7.47,2.82,11.49,5.27,4.02,2.46,7.65,5.77,10.88,9.94,3.23,4.17,4.84,9.5,4.84,16,0,9.63-3.42,17.87-10.26,24.71-6.84,6.84-15.05,10.26-24.64,10.26s-17.87-3.42-24.71-10.26c-6.84-6.84-10.26-15.08-10.26-24.71h23.34c0,3.23,1.13,5.97,3.4,8.24,2.26,2.26,5.01,3.4,8.24,3.4s5.91-1.13,8.2-3.4c2.29-2.26,3.43-5.01,3.43-8.24,0-4.91-1.96-8.09-5.89-9.54-3.93-1.45-6.59-2.43-7.99-2.96-.72-.24-2.83-.96-6.32-2.17Z"/>
          <path class="cls-1" d="M1127.82,429.49c-8-8-17.61-11.99-28.83-11.99h-40.75v116.47h23.34v-34.97h.09v-23.27h-.09v-34.97h17.41c4.82,0,8.94,1.72,12.36,5.17,3.42,3.45,5.13,7.55,5.13,12.32s-1.71,8.94-5.13,12.36c-3.42,3.42-7.54,5.13-12.36,5.13h-1.28v23.27h1.28c11.22,0,20.83-3.99,28.83-11.96,7.99-7.97,11.99-17.57,11.99-28.79s-4-20.76-11.99-28.76Z"/>
          <path class="cls-1" d="M824.58,481.62c4.94-6.91,7.41-14.7,7.41-23.38,0-11.17-4-20.76-12-28.76-7.99-8-17.61-11.99-28.83-11.99h-1.28v23.27h1.28c4.82,0,8.93,1.72,12.36,5.17,3.42,3.45,5.13,7.55,5.13,12.32s-1.71,8.94-5.13,12.36c-3.42,3.42-7.54,5.13-12.36,5.13h-17.42v-34.97h.1v-23.27h-23.43v116.47h23.34v-42.63l29.77,42.63h28.47l-26.3-37.65c7.66-2.89,13.96-7.79,18.89-14.7Z"/>
          <g>
            <polygon class="cls-1" points="945.11 472.84 957.13 444.04 947.64 422.91 945.18 417.5 942.65 422.99 892.73 533.97 897.64 533.97 912.67 533.97 913.68 533.97 917.49 533.97 936.05 493.22 936.01 493.22 945.11 472.84"/>
            <polygon class="cls-1" points="966.17 464.18 954.23 493.1 954.29 493.22 954.19 493.22 954.19 493.22 954.22 493.25 953.67 494.47 944.59 516.48 964.76 516.48 965.13 517.35 972.64 533.97 976.61 533.97 977.55 533.97 992.58 533.97 997.5 533.97 966.17 464.18"/>
          </g>
        </g>
        <g>
          <path class="cls-1" d="M816.7,32.25v69.87c0,12.86-4.56,23.85-13.69,32.95-9.13,9.1-20.1,13.66-32.91,13.66-1.49,0-2.96-.07-4.41-.22v-23.48c1.59.24,3.06.36,4.41.36,6.36,0,11.84-2.28,16.44-6.83,4.6-4.55,6.9-10.03,6.9-16.44V32.25h23.27Z"/>
          <path class="cls-1" d="M986.22,49.37c11.42,11.41,17.12,25.12,17.12,41.11s-5.71,29.76-17.12,41.15c-11.42,11.39-25.12,17.09-41.11,17.09s-29.76-5.7-41.15-17.09c-11.39-11.39-17.09-25.11-17.09-41.15s5.7-29.7,17.09-41.11c11.39-11.42,25.11-17.12,41.15-17.12s29.7,5.71,41.11,17.12ZM920.44,65.81c-6.82,6.86-10.22,15.09-10.22,24.68s3.41,17.86,10.22,24.68c6.82,6.82,15.04,10.22,24.68,10.22s17.81-3.41,24.68-10.22c6.86-6.82,10.3-15.04,10.3-24.68s-3.43-17.81-10.3-24.68c-6.87-6.87-15.09-10.3-24.68-10.3s-17.86,3.43-24.68,10.3Z"/>
          <path class="cls-1" d="M1294.05,49.37c11.42,11.41,17.12,25.12,17.12,41.11s-5.71,29.76-17.12,41.15c-11.42,11.39-25.12,17.09-41.11,17.09s-29.76-5.7-41.15-17.09c-11.39-11.39-17.09-25.11-17.09-41.15s5.7-29.7,17.09-41.11c11.39-11.42,25.11-17.12,41.15-17.12s29.7,5.71,41.11,17.12ZM1228.26,65.81c-6.82,6.86-10.22,15.09-10.22,24.68s3.41,17.86,10.22,24.68c6.82,6.82,15.04,10.22,24.68,10.22s17.81-3.41,24.68-10.22c6.86-6.82,10.3-15.04,10.3-24.68s-3.43-17.81-10.3-24.68c-6.87-6.87-15.09-10.3-24.68-10.3s-17.86,3.43-24.68,10.3Z"/>
          <g>
            <polygon class="cls-1" points="1099.02 87.56 1111.04 58.76 1101.55 37.63 1099.1 32.21 1096.57 37.7 1046.64 148.68 1051.55 148.68 1066.58 148.68 1067.59 148.68 1071.41 148.68 1089.96 107.93 1089.92 107.93 1099.02 87.56"/>
            <polygon class="cls-1" points="1120.08 78.89 1108.15 107.81 1108.2 107.93 1108.1 107.93 1108.1 107.93 1108.14 107.97 1107.58 109.19 1098.5 131.2 1118.68 131.2 1119.04 132.07 1126.55 148.68 1130.53 148.68 1131.47 148.68 1146.5 148.68 1151.41 148.68 1120.08 78.89"/>
          </g>
        </g>
      </g>
    </g>
  </g>
</svg>