<?xml version="1.0" encoding="UTF-8"?>
<svg id="Camada_2" xmlns="http://www.w3.org/2000/svg" viewBox="0 0 671.14 566.18">
  <defs>
    <style>
      .cls-1 {
        fill: #141414;
      }
    </style>
  </defs>
  <g id="Camada_1-2" data-name="Camada_1">
    <g>
      <path class="cls-1" d="M671.14,25.8h-32.27l14.9-25.8H0l326.88,566.18,15.69-27.18,15.72,27.14L671.14,25.8ZM326.88,533.83L28.01,16.17h597.74l-5.56,9.63H45.44l287.78,497.05-6.34,10.98ZM610.86,41.97l-268.3,464.71L73.49,41.97h537.37ZM629.53,41.97h13.55l-284.8,491.89-6.38-11.03L629.53,41.97Z"/>
      <path class="cls-1" d="M325.15,153.04l18.68,32.35,39.48,68.38,18.67,32.35,18.68-32.35-18.68-32.35-20.8-36.03h78.96l18.67-32.35,10.01-17.33,18.68-32.35h-211.04l18.67,32.35,10.01,17.33ZM451.47,135.7l-10.01,17.33h-78.96l-10.01-17.33h98.97Z"/>
      <polygon class="cls-1" points="284.65 217.73 246.88 217.73 325.59 353.74 344.26 386.1 362.95 353.74 373.47 335.5 392.16 303.14 373.47 270.79 324.18 185.38 305.5 153.04 295.48 135.7 276.82 103.36 181.02 103.36 199.7 135.7 258.13 135.7 268.14 153.04 286.82 185.38 354.81 303.14 344.26 321.4 284.65 217.73"/>
    </g>
  </g>
</svg>