<?xml version="1.0" encoding="UTF-8"?>
<svg id="Camada_2" xmlns="http://www.w3.org/2000/svg" viewBox="0 0 96 95.35">
  <defs>
    <style>
      .cls-1 {
        fill: #141414;
      }

      .cls-2 {
        fill: #cecece;
      }
    </style>
  </defs>
  <g id="Camada_1-2" data-name="Camada_1">
    <rect class="cls-2" x="4.24" y="0" width="87.53" height="87.53" rx="43.76" ry="43.76"/>
    <g>
      <path class="cls-1" d="M96,18.05h-4.62l2.13-3.69H0l46.76,80.99,2.24-3.89,2.25,3.88L96,18.05ZM46.76,90.72L4.01,16.68h85.5l-.79,1.38H6.5l41.16,71.1-.91,1.57ZM87.38,20.37l-38.38,66.47L10.51,20.37h76.86ZM90.05,20.37h1.94l-40.74,70.36-.91-1.58L90.05,20.37Z"/>
      <path class="cls-1" d="M46.51,36.25l2.67,4.63,5.65,9.78,2.67,4.63,2.67-4.63-2.67-4.63-2.97-5.15h11.29l2.67-4.63,1.43-2.48,2.67-4.63h-30.19l2.67,4.63,1.43,2.48ZM64.58,33.77l-1.43,2.48h-11.29l-1.43-2.48h14.16Z"/>
      <polygon class="cls-1" points="40.72 45.51 35.31 45.51 46.57 64.96 49.24 69.59 51.92 64.96 53.42 62.35 56.1 57.72 53.42 53.1 46.37 40.88 43.7 36.25 42.27 33.77 39.6 29.15 25.89 29.15 28.56 33.77 36.92 33.77 38.35 36.25 41.03 40.88 50.75 57.72 49.24 60.33 40.72 45.51"/>
    </g>
  </g>
</svg>