<?xml version="1.0" encoding="UTF-8"?>
<svg id="Camada_2" xmlns="http://www.w3.org/2000/svg" viewBox="0 0 75.97 64.09">
  <defs>
    <style>
      .cls-1 {
        fill: #3b3338;
      }
    </style>
  </defs>
  <g id="Camada_1-2" data-name="Camada_1">
    <g>
      <path class="cls-1" d="M75.97,2.92h-3.65l1.69-2.92H0l37,64.09,1.78-3.08,1.78,3.07L75.97,2.92ZM37,60.43L3.17,1.83h67.66l-.63,1.09H5.14l32.58,56.26-.72,1.24ZM69.15,4.75l-30.37,52.6L8.32,4.75h60.83ZM71.26,4.75h1.53l-32.24,55.68-.72-1.25L71.26,4.75Z"/>
      <g>
        <polygon class="cls-1" points="58.79 15.36 60.9 11.7 16.48 11.7 18.6 15.36 58.79 15.36"/>
        <polygon class="cls-1" points="22.51 22.14 54.87 22.14 56.98 18.48 20.4 18.48 22.51 22.14"/>
        <polygon class="cls-1" points="30.34 35.71 47.04 35.71 49.15 32.04 28.23 32.04 30.34 35.71"/>
        <polygon class="cls-1" points="26.43 28.92 50.96 28.92 53.07 25.26 24.31 25.26 26.43 28.92"/>
      </g>
    </g>
  </g>
</svg>