<?xml version="1.0" encoding="UTF-8"?>
<svg id="Camada_2" xmlns="http://www.w3.org/2000/svg" viewBox="0 0 75.97 64.09">
  <defs>
    <style>
      .cls-1 {
        fill: #fff;
      }
    </style>
  </defs>
  <g id="Camada_1-2" data-name="Camada_1">
    <path class="cls-1" d="M0,61.17h3.65l-1.69,2.92h74L38.97,0l-1.78,3.08L35.41,0,0,61.17ZM38.97,3.66l33.83,58.6H5.14l.63-1.09h65.06L38.25,4.9l.72-1.24ZM6.82,59.34L37.19,6.73l30.46,52.6H6.82ZM4.71,59.34h-1.53L35.41,3.66l.72,1.25L4.71,59.34Z"/>
    <polygon class="cls-1" points="39.39 40.39 46.32 52.39 42.1 52.39 37.28 44.05 32.46 52.39 28.23 52.39 35.16 40.39 28.23 28.38 32.46 28.38 37.28 36.72 42.1 28.38 46.32 28.38 39.39 40.39"/>
  </g>
</svg>